<?xml version="1.0" standalone="no"?>
<!DOCTYPE svg PUBLIC "-//W3C//DTD SVG 20010904//EN"
 "http://www.w3.org/TR/2001/REC-SVG-20010904/DTD/svg10.dtd">
<svg version="1.0" xmlns="http://www.w3.org/2000/svg"
 width="1800.000000pt" height="1800.000000pt" viewBox="0 0 1800.000000 1800.000000"
 preserveAspectRatio="xMidYMid meet">
<metadata>
Created by potrace 1.14, written by Peter Selinger 2001-2017
</metadata>
<g transform="translate(0.000000,1800.000000) scale(0.100000,-0.100000)"
fill="#000000" stroke="none">
<path d="M0 9000 l0 -9000 9000 0 9000 0 0 9000 0 9000 -9000 0 -9000 0 0
-9000z m10565 7010 c3 -6 46 -10 99 -10 50 0 96 -4 102 -9 5 -5 29 -11 54 -14
25 -3 71 -10 103 -16 120 -23 163 -31 197 -36 19 -4 44 -10 55 -15 11 -5 40
-16 65 -24 87 -29 150 -53 157 -59 3 -4 17 -7 29 -7 13 0 26 -4 29 -10 3 -5
13 -10 22 -10 14 0 134 -54 207 -92 67 -35 113 -62 127 -74 8 -8 20 -14 26
-14 5 0 18 -9 28 -20 10 -11 22 -20 27 -20 22 0 221 -144 284 -204 12 -12 54
-48 94 -81 122 -101 420 -408 420 -432 0 -5 21 -29 46 -53 25 -25 72 -80 103
-123 31 -44 66 -93 79 -110 12 -18 36 -50 53 -72 72 -96 220 -330 259 -410 19
-38 39 -77 46 -85 19 -25 87 -164 139 -285 9 -22 28 -62 41 -90 13 -27 28 -72
35 -100 6 -27 16 -54 20 -59 5 -6 9 -20 9 -32 0 -13 5 -26 10 -29 6 -3 10 -17
10 -30 0 -13 4 -26 8 -29 5 -3 14 -31 21 -63 7 -32 16 -72 22 -89 5 -17 9 -42
9 -57 0 -14 5 -29 10 -32 6 -3 10 -24 10 -45 0 -21 5 -42 10 -45 6 -3 10 -37
10 -75 0 -38 4 -71 9 -74 8 -5 21 -241 21 -401 1 -137 -24 -412 -40 -450 -4
-11 -14 -67 -21 -125 -6 -58 -15 -109 -19 -115 -4 -5 -13 -35 -21 -65 -7 -30
-16 -59 -21 -64 -4 -6 -8 -25 -8 -42 0 -18 -4 -36 -10 -39 -5 -3 -10 -21 -10
-40 0 -19 -4 -37 -10 -40 -5 -3 -10 -21 -10 -38 0 -32 -20 -101 -33 -113 -4
-4 -7 -18 -7 -30 0 -13 -4 -26 -10 -29 -5 -3 -10 -20 -10 -36 0 -17 -9 -49
-20 -71 -11 -23 -20 -50 -20 -60 0 -11 -9 -38 -20 -60 -11 -23 -20 -48 -20
-55 0 -7 -9 -28 -20 -48 -11 -20 -20 -46 -20 -58 0 -12 -9 -33 -20 -47 -11
-14 -20 -35 -20 -48 0 -12 -13 -49 -30 -82 -16 -33 -30 -64 -30 -69 0 -6 -13
-33 -30 -61 -16 -28 -30 -56 -30 -63 0 -14 -75 -164 -111 -222 -13 -22 -31
-53 -39 -70 -22 -45 -112 -194 -159 -262 -22 -33 -41 -63 -41 -67 0 -4 -24
-37 -52 -74 -29 -37 -62 -79 -73 -94 -131 -174 -294 -355 -472 -525 -150 -143
-170 -162 -223 -202 -19 -14 -51 -42 -70 -61 -19 -20 -51 -48 -72 -63 -20 -15
-42 -33 -50 -40 -7 -7 -29 -24 -48 -37 -19 -13 -37 -27 -40 -30 -13 -14 -252
-190 -258 -190 -5 0 -21 -13 -37 -30 -16 -16 -34 -30 -41 -30 -6 0 -18 -7 -25
-16 -7 -9 -22 -20 -34 -25 -11 -5 -38 -23 -60 -40 -37 -27 -86 -63 -140 -99
-115 -78 -234 -159 -299 -205 -44 -31 -96 -66 -117 -78 -20 -12 -77 -49 -126
-83 -90 -62 -181 -124 -333 -229 -47 -32 -98 -70 -115 -85 -16 -14 -43 -32
-59 -40 -16 -8 -48 -32 -71 -52 -24 -21 -46 -38 -49 -38 -8 0 -201 -147 -215
-164 -8 -9 -18 -16 -24 -16 -5 0 -29 -17 -53 -37 -23 -21 -66 -56 -94 -78
-108 -83 -259 -209 -342 -283 -33 -30 -67 -60 -76 -67 -23 -19 -221 -203 -302
-281 -87 -83 -338 -347 -387 -406 -21 -25 -74 -89 -118 -141 -44 -52 -99 -119
-122 -148 -23 -30 -72 -91 -108 -137 -36 -45 -65 -85 -65 -87 0 -3 -22 -35
-50 -70 -27 -35 -50 -68 -50 -72 0 -4 -17 -30 -38 -58 -34 -46 -60 -83 -87
-126 -5 -9 -23 -36 -40 -60 -16 -24 -40 -64 -54 -89 -13 -25 -33 -58 -45 -75
-23 -33 -41 -62 -53 -85 -4 -8 -30 -53 -57 -100 -28 -47 -57 -98 -65 -115 -7
-16 -18 -39 -24 -50 -12 -24 -136 -264 -165 -320 -11 -22 -28 -58 -37 -80 -9
-22 -33 -74 -52 -115 -19 -41 -39 -84 -43 -95 -7 -19 -17 -44 -37 -95 -6 -14
-21 -47 -33 -75 -30 -66 -36 -83 -51 -130 -7 -22 -17 -44 -21 -49 -4 -6 -8
-20 -8 -32 0 -13 -4 -26 -10 -29 -5 -3 -10 -13 -10 -21 0 -13 -29 -85 -51
-126 -5 -10 -9 -25 -9 -33 0 -8 -4 -23 -9 -33 -14 -28 -31 -87 -31 -108 0 -11
-4 -24 -8 -30 -4 -5 -14 -27 -21 -49 -7 -22 -16 -49 -20 -60 -11 -27 -37 -119
-63 -220 -5 -22 -14 -48 -19 -57 -5 -10 -9 -27 -9 -37 0 -11 -4 -23 -10 -26
-5 -3 -10 -21 -10 -40 0 -19 -4 -37 -10 -40 -5 -3 -10 -23 -10 -44 0 -20 -4
-41 -9 -46 -5 -6 -11 -28 -14 -50 -7 -56 -36 -176 -47 -197 -6 -10 -10 -35
-10 -56 0 -21 -4 -42 -9 -47 -5 -6 -12 -35 -14 -65 -3 -30 -10 -77 -17 -105
-6 -27 -13 -66 -16 -85 -3 -19 -9 -44 -14 -55 -5 -11 -12 -47 -15 -80 -3 -33
-10 -98 -15 -145 -5 -47 -12 -112 -16 -145 -3 -33 -10 -64 -15 -70 -5 -5 -9
-32 -9 -61 0 -48 -3 -54 -32 -73 -53 -34 -101 -70 -129 -97 -14 -13 -29 -24
-33 -24 -5 0 -27 -16 -50 -35 -23 -20 -68 -58 -101 -86 -126 -104 -231 -198
-339 -302 -62 -59 -116 -107 -120 -107 -13 0 8 273 25 317 5 13 7 28 5 31 -5
9 11 172 25 242 24 133 30 167 33 200 11 112 49 344 81 495 3 17 10 50 15 75
38 198 106 504 160 720 6 22 14 57 19 78 5 20 15 55 21 77 6 22 15 56 20 75 5
19 14 53 20 75 7 22 14 55 17 73 3 18 9 35 14 38 5 3 9 16 9 29 0 13 4 34 9
47 5 13 14 43 21 68 21 74 50 164 60 182 6 10 10 27 10 37 0 11 4 23 10 26 6
3 10 17 10 30 0 13 5 27 10 30 6 3 10 17 10 30 0 13 5 27 10 30 6 3 10 17 10
30 0 13 5 27 10 30 6 3 10 15 10 26 0 10 4 27 9 37 5 9 19 51 32 92 12 41 26
79 31 84 4 6 8 20 8 32 0 13 5 26 10 29 6 3 10 15 10 25 0 11 9 35 20 55 11
20 20 40 20 46 0 5 9 29 20 51 11 23 20 46 20 50 0 5 9 28 20 50 11 23 20 45
20 50 0 5 9 30 21 56 12 26 24 56 29 67 4 11 17 40 29 63 11 24 21 48 21 53 0
6 23 58 51 117 27 59 54 116 58 127 25 60 275 551 290 569 6 7 22 33 35 57 13
24 36 67 51 94 16 28 33 59 39 70 40 74 363 561 409 615 6 8 52 69 101 135 96
129 101 134 168 210 25 28 56 63 69 80 13 16 49 57 79 90 31 33 68 76 83 96
39 54 496 509 591 588 44 38 101 90 126 115 24 25 48 46 54 46 5 0 30 19 56
43 44 39 74 65 160 134 19 15 37 30 40 33 3 3 25 21 50 40 53 41 61 48 118 94
24 20 47 36 50 36 4 0 21 12 37 26 32 28 139 106 263 192 43 29 84 58 92 65
72 57 101 77 166 114 22 13 57 36 79 52 37 27 366 253 403 276 53 33 224 151
262 180 25 19 54 39 65 44 12 5 27 16 34 25 7 9 19 16 25 17 6 0 38 22 71 49
33 27 101 77 150 111 50 35 108 77 130 96 22 18 90 74 150 124 131 108 130
107 319 290 140 136 276 290 375 424 25 33 56 76 70 95 15 19 32 47 40 61 7
14 24 39 38 55 13 16 33 47 44 69 11 22 37 72 59 110 68 121 158 316 186 404
8 25 19 54 24 63 6 10 10 27 10 38 0 11 4 28 9 38 19 37 31 69 42 112 6 25 15
50 19 55 4 6 10 28 13 50 3 22 10 59 16 83 46 178 48 188 84 427 15 104 15
568 -1 705 -7 58 -15 128 -18 155 -3 28 -10 54 -15 60 -5 5 -9 26 -9 47 0 20
-4 47 -9 60 -5 13 -14 43 -21 68 -44 172 -70 254 -101 325 -4 11 -16 44 -25
73 -9 29 -20 55 -25 58 -5 3 -9 13 -9 22 0 15 -14 47 -81 182 -41 84 -102 196
-136 248 -89 140 -151 231 -191 282 -24 30 -51 64 -59 75 -106 137 -378 401
-464 451 -10 6 -27 18 -37 27 -10 10 -22 17 -25 17 -4 0 -28 16 -54 36 -27 21
-64 44 -83 53 -19 9 -53 28 -75 42 -22 14 -61 35 -87 47 -25 12 -49 26 -53 32
-3 5 -16 10 -29 10 -12 0 -26 4 -31 9 -13 11 -152 62 -188 68 -15 3 -30 9 -33
14 -3 5 -16 9 -29 9 -13 0 -27 5 -30 10 -3 6 -21 10 -40 10 -19 0 -36 4 -39 9
-6 8 -31 14 -119 27 -20 4 -40 10 -43 15 -3 5 -34 9 -69 9 -35 0 -66 4 -69 8
-7 11 -259 26 -386 24 -193 -4 -336 -13 -355 -22 -19 -9 -38 -12 -155 -25 -30
-4 -64 -10 -75 -15 -11 -5 -33 -11 -50 -13 -16 -3 -48 -11 -70 -17 -22 -7 -55
-14 -73 -17 -18 -3 -35 -9 -38 -14 -3 -5 -15 -9 -26 -9 -23 0 -81 -17 -110
-31 -10 -5 -26 -9 -36 -9 -10 0 -22 -4 -27 -8 -6 -4 -28 -14 -50 -21 -55 -19
-130 -52 -320 -142 -98 -47 -291 -155 -348 -195 -26 -19 -50 -34 -53 -34 -3 0
-33 -20 -65 -45 -33 -25 -62 -45 -65 -45 -4 0 -23 -15 -44 -32 -66 -58 -123
-103 -136 -108 -7 -3 -43 -34 -81 -70 -37 -36 -108 -101 -156 -144 -79 -70
-188 -190 -257 -280 -14 -18 -52 -66 -85 -106 -33 -40 -65 -81 -71 -92 -6 -10
-23 -32 -38 -47 -14 -15 -26 -30 -26 -35 0 -4 -31 -54 -70 -112 -38 -57 -70
-108 -70 -113 0 -5 -7 -14 -15 -21 -9 -7 -25 -33 -35 -56 -11 -24 -24 -45 -29
-48 -5 -4 -31 -50 -57 -104 -27 -53 -55 -108 -64 -122 -9 -14 -23 -41 -30 -60
-7 -19 -21 -46 -30 -60 -9 -14 -22 -41 -30 -60 -7 -19 -24 -60 -37 -90 -14
-30 -32 -71 -40 -90 -8 -19 -23 -52 -34 -73 -10 -22 -19 -47 -19 -57 0 -11 -4
-22 -10 -25 -5 -3 -10 -15 -10 -25 0 -11 -9 -35 -20 -55 -11 -20 -20 -44 -20
-55 0 -10 -5 -22 -11 -26 -6 -3 -8 -16 -5 -27 3 -12 -1 -28 -8 -37 -14 -15
-46 -101 -46 -121 0 -6 -6 -25 -14 -42 -8 -18 -17 -43 -19 -57 -10 -44 -47
-182 -74 -275 -15 -49 -30 -108 -34 -130 -4 -22 -17 -78 -29 -125 -12 -47 -25
-105 -30 -130 -5 -25 -18 -90 -30 -145 -11 -55 -25 -120 -30 -145 -17 -83 -51
-304 -56 -360 -3 -30 -9 -64 -14 -75 -4 -11 -11 -47 -15 -80 -3 -33 -11 -85
-16 -115 -6 -30 -14 -102 -19 -160 -5 -58 -14 -132 -19 -165 -6 -33 -15 -109
-20 -170 -10 -130 -22 -173 -56 -205 -14 -13 -25 -29 -25 -35 0 -7 -9 -20 -20
-30 -11 -10 -20 -23 -20 -30 0 -7 -9 -20 -20 -30 -11 -10 -20 -23 -20 -30 0
-7 -9 -20 -20 -30 -11 -10 -20 -22 -20 -27 0 -5 -13 -28 -28 -51 -15 -23 -34
-55 -42 -72 -8 -16 -23 -43 -33 -58 -25 -36 -228 -440 -246 -487 -7 -19 -25
-62 -41 -95 -61 -134 -70 -156 -70 -170 0 -8 -4 -15 -9 -15 -16 0 -22 191 -27
955 -3 467 -1 747 5 760 5 11 12 99 16 195 3 96 9 222 14 280 5 58 13 149 17
203 4 54 11 100 15 103 5 3 9 47 9 99 0 52 4 97 10 100 6 3 10 30 10 59 0 28
4 56 9 62 5 5 12 29 15 54 12 97 26 198 35 250 10 52 16 84 41 195 6 25 15 66
21 93 5 26 13 62 16 80 3 18 9 35 14 38 5 3 9 16 9 29 0 13 4 34 9 47 5 13 15
50 22 83 7 33 16 64 21 70 4 5 8 21 8 36 0 15 5 31 10 34 6 3 10 17 10 30 0
13 8 43 19 67 21 50 51 137 77 223 10 33 33 90 51 127 18 37 35 80 38 95 7 30
38 99 116 256 27 54 49 103 49 109 0 5 9 23 20 38 11 16 33 52 49 82 37 70 58
107 121 208 48 79 76 119 205 305 184 265 581 673 852 875 43 32 94 71 113 85
50 38 213 150 230 158 8 4 26 15 40 25 14 9 41 26 59 37 18 11 49 30 68 43 19
12 98 55 176 95 78 41 151 78 162 84 19 10 172 82 278 131 26 12 54 22 62 22
9 0 23 4 33 9 19 10 67 30 97 41 30 11 78 31 97 41 10 5 27 9 37 9 11 0 23 5
26 10 3 6 15 10 26 10 10 0 27 4 37 9 9 5 37 14 62 21 25 7 53 16 62 21 10 5
29 9 42 9 14 0 27 4 30 9 3 5 18 11 33 14 16 3 47 11 71 16 23 6 61 16 85 22
60 15 209 44 282 54 22 4 49 10 60 15 22 10 71 17 188 26 42 4 80 11 83 15 3
5 47 9 97 9 51 0 98 4 106 9 21 13 558 14 566 1z m-2972 -4877 c32 -3 60 -10
63 -14 3 -5 14 -9 25 -9 23 0 142 -59 184 -92 34 -26 92 -84 116 -114 33 -42
80 -140 86 -179 3 -22 9 -44 13 -50 11 -14 15 -212 6 -255 -7 -32 -22 -70 -64
-160 -18 -38 -160 -190 -178 -190 -6 0 -19 -9 -29 -20 -10 -11 -25 -20 -34
-20 -9 0 -27 -9 -41 -20 -14 -11 -41 -20 -61 -20 -19 0 -40 -5 -46 -11 -6 -6
-53 -9 -129 -6 -141 6 -190 14 -224 36 -14 9 -47 28 -75 41 -27 13 -72 44 -98
69 -46 44 -137 171 -137 191 0 6 -4 18 -9 28 -32 62 -34 78 -34 206 0 74 4
141 10 148 5 7 16 33 23 58 8 25 23 61 34 80 27 46 99 141 123 160 92 77 237
140 321 140 22 0 44 5 48 11 3 6 16 8 28 4 11 -3 47 -9 79 -12z"/>
</g>
</svg>
